<svg xmlns="http://www.w3.org/2000/svg" viewBox="0 0 512 512">
  <defs>
    <linearGradient id="bg" x1="0" y1="0" x2="1" y2="1">
      <stop offset="0" stop-color="#ff6a49"/>
      <stop offset="1" stop-color="#f85c3a"/>
    </linearGradient>
    <filter id="shadow" x="-20%" y="-20%" width="140%" height="140%">
      <feDropShadow dx="0" dy="10" stdDeviation="18" flood-color="#000" flood-opacity="0.35"/>
    </filter>
  </defs>

  <rect x="36" y="36" width="440" height="440" rx="104" fill="url(#bg)"/>

  <!-- KZero mark (from kzero.com wordmark), simplified and centered -->
  <g fill="#ffffff" filter="url(#shadow)" transform="translate(160 144) scale(6.2)">
    <path d="M0 .5h11.66v5.96a6.8 6.8 0 0 1-6.79 6.8H0V.5Z" />
    <path d="M0 15.13h4.87a6.8 6.8 0 0 1 6.8 6.8v5.96H0V15.13Z" />
    <path d="M19.85 13.26c-3.65 0-6.6-3.13-6.6-7V.5h18.38l-6.34 9.73a6.51 6.51 0 0 1-5.44 3.03Z" />
    <path d="M31.63 27.89H13.24v-5.77c0-3.86 2.96-6.99 6.61-6.99a6.51 6.51 0 0 1 5.44 3.03l6.34 9.73Z" />
  </g>
</svg>
